%TF.GenerationSoftware,KiCad,Pcbnew,(5.1.6)-1*%
%TF.CreationDate,2020-06-24T21:39:32+02:00*%
%TF.ProjectId,SMT-2-THT,534d542d-322d-4544-9854-2e6b69636164,1.0*%
%TF.SameCoordinates,Original*%
%TF.FileFunction,Copper,L1,Top*%
%TF.FilePolarity,Positive*%
%FSLAX46Y46*%
G04 Gerber Fmt 4.6, Leading zero omitted, Abs format (unit mm)*
G04 Created by KiCad (PCBNEW (5.1.6)-1) date 2020-06-24 21:39:32*
%MOMM*%
%LPD*%
G01*
G04 APERTURE LIST*
%TA.AperFunction,SMDPad,CuDef*%
%ADD10R,2.000000X3.800000*%
%TD*%
%TA.AperFunction,SMDPad,CuDef*%
%ADD11R,2.000000X1.500000*%
%TD*%
%TA.AperFunction,ComponentPad*%
%ADD12R,1.700000X1.700000*%
%TD*%
%TA.AperFunction,ComponentPad*%
%ADD13O,1.700000X1.700000*%
%TD*%
%TA.AperFunction,ViaPad*%
%ADD14C,0.800000*%
%TD*%
%TA.AperFunction,Conductor*%
%ADD15C,1.500000*%
%TD*%
%TA.AperFunction,Conductor*%
%ADD16C,0.254000*%
%TD*%
G04 APERTURE END LIST*
D10*
%TO.P,U1,4*%
%TO.N,/Pin4*%
X89510000Y-104140000D03*
D11*
%TO.P,U1,2*%
%TO.N,/Pin2*%
X83210000Y-104140000D03*
%TO.P,U1,3*%
%TO.N,/Pin3*%
X83210000Y-106440000D03*
%TO.P,U1,1*%
%TO.N,/Pin1*%
X83210000Y-101840000D03*
%TD*%
D12*
%TO.P,J1,1*%
%TO.N,/Pin1*%
X78740000Y-101600000D03*
D13*
%TO.P,J1,2*%
%TO.N,/Pin2*%
X78740000Y-104140000D03*
%TO.P,J1,3*%
%TO.N,/Pin3*%
X78740000Y-106680000D03*
%TD*%
D12*
%TO.P,J2,1*%
%TO.N,/Pin4*%
X93980000Y-104140000D03*
%TD*%
D14*
%TO.N,/Pin4*%
X88900000Y-100965000D03*
X90170000Y-100965000D03*
X90170000Y-107315000D03*
X88900000Y-107315000D03*
%TD*%
D15*
%TO.N,/Pin1*%
X83210000Y-101840000D02*
X81520000Y-101840000D01*
X81280000Y-101600000D02*
X78740000Y-101600000D01*
X81520000Y-101840000D02*
X81280000Y-101600000D01*
%TO.N,/Pin2*%
X83210000Y-104140000D02*
X78740000Y-104140000D01*
%TO.N,/Pin3*%
X83210000Y-106440000D02*
X81520000Y-106440000D01*
X81280000Y-106680000D02*
X78740000Y-106680000D01*
X81520000Y-106440000D02*
X81280000Y-106680000D01*
%TO.N,/Pin4*%
X89510000Y-104140000D02*
X93980000Y-104140000D01*
%TD*%
D16*
%TO.N,/Pin4*%
G36*
X95700001Y-108458000D02*
G01*
X87122000Y-108458000D01*
X87122000Y-106040000D01*
X87871928Y-106040000D01*
X87884188Y-106164482D01*
X87920498Y-106284180D01*
X87979463Y-106394494D01*
X88058815Y-106491185D01*
X88155506Y-106570537D01*
X88265820Y-106629502D01*
X88385518Y-106665812D01*
X88510000Y-106678072D01*
X89224250Y-106675000D01*
X89383000Y-106516250D01*
X89383000Y-104267000D01*
X89637000Y-104267000D01*
X89637000Y-106516250D01*
X89795750Y-106675000D01*
X90510000Y-106678072D01*
X90634482Y-106665812D01*
X90754180Y-106629502D01*
X90864494Y-106570537D01*
X90961185Y-106491185D01*
X91040537Y-106394494D01*
X91099502Y-106284180D01*
X91135812Y-106164482D01*
X91148072Y-106040000D01*
X91146074Y-104990000D01*
X92491928Y-104990000D01*
X92504188Y-105114482D01*
X92540498Y-105234180D01*
X92599463Y-105344494D01*
X92678815Y-105441185D01*
X92775506Y-105520537D01*
X92885820Y-105579502D01*
X93005518Y-105615812D01*
X93130000Y-105628072D01*
X93694250Y-105625000D01*
X93853000Y-105466250D01*
X93853000Y-104267000D01*
X94107000Y-104267000D01*
X94107000Y-105466250D01*
X94265750Y-105625000D01*
X94830000Y-105628072D01*
X94954482Y-105615812D01*
X95074180Y-105579502D01*
X95184494Y-105520537D01*
X95281185Y-105441185D01*
X95360537Y-105344494D01*
X95419502Y-105234180D01*
X95455812Y-105114482D01*
X95468072Y-104990000D01*
X95465000Y-104425750D01*
X95306250Y-104267000D01*
X94107000Y-104267000D01*
X93853000Y-104267000D01*
X92653750Y-104267000D01*
X92495000Y-104425750D01*
X92491928Y-104990000D01*
X91146074Y-104990000D01*
X91145000Y-104425750D01*
X90986250Y-104267000D01*
X89637000Y-104267000D01*
X89383000Y-104267000D01*
X88033750Y-104267000D01*
X87875000Y-104425750D01*
X87871928Y-106040000D01*
X87122000Y-106040000D01*
X87122000Y-102240000D01*
X87871928Y-102240000D01*
X87875000Y-103854250D01*
X88033750Y-104013000D01*
X89383000Y-104013000D01*
X89383000Y-101763750D01*
X89637000Y-101763750D01*
X89637000Y-104013000D01*
X90986250Y-104013000D01*
X91145000Y-103854250D01*
X91146073Y-103290000D01*
X92491928Y-103290000D01*
X92495000Y-103854250D01*
X92653750Y-104013000D01*
X93853000Y-104013000D01*
X93853000Y-102813750D01*
X94107000Y-102813750D01*
X94107000Y-104013000D01*
X95306250Y-104013000D01*
X95465000Y-103854250D01*
X95468072Y-103290000D01*
X95455812Y-103165518D01*
X95419502Y-103045820D01*
X95360537Y-102935506D01*
X95281185Y-102838815D01*
X95184494Y-102759463D01*
X95074180Y-102700498D01*
X94954482Y-102664188D01*
X94830000Y-102651928D01*
X94265750Y-102655000D01*
X94107000Y-102813750D01*
X93853000Y-102813750D01*
X93694250Y-102655000D01*
X93130000Y-102651928D01*
X93005518Y-102664188D01*
X92885820Y-102700498D01*
X92775506Y-102759463D01*
X92678815Y-102838815D01*
X92599463Y-102935506D01*
X92540498Y-103045820D01*
X92504188Y-103165518D01*
X92491928Y-103290000D01*
X91146073Y-103290000D01*
X91148072Y-102240000D01*
X91135812Y-102115518D01*
X91099502Y-101995820D01*
X91040537Y-101885506D01*
X90961185Y-101788815D01*
X90864494Y-101709463D01*
X90754180Y-101650498D01*
X90634482Y-101614188D01*
X90510000Y-101601928D01*
X89795750Y-101605000D01*
X89637000Y-101763750D01*
X89383000Y-101763750D01*
X89224250Y-101605000D01*
X88510000Y-101601928D01*
X88385518Y-101614188D01*
X88265820Y-101650498D01*
X88155506Y-101709463D01*
X88058815Y-101788815D01*
X87979463Y-101885506D01*
X87920498Y-101995820D01*
X87884188Y-102115518D01*
X87871928Y-102240000D01*
X87122000Y-102240000D01*
X87122000Y-99822000D01*
X95700000Y-99822000D01*
X95700001Y-108458000D01*
G37*
X95700001Y-108458000D02*
X87122000Y-108458000D01*
X87122000Y-106040000D01*
X87871928Y-106040000D01*
X87884188Y-106164482D01*
X87920498Y-106284180D01*
X87979463Y-106394494D01*
X88058815Y-106491185D01*
X88155506Y-106570537D01*
X88265820Y-106629502D01*
X88385518Y-106665812D01*
X88510000Y-106678072D01*
X89224250Y-106675000D01*
X89383000Y-106516250D01*
X89383000Y-104267000D01*
X89637000Y-104267000D01*
X89637000Y-106516250D01*
X89795750Y-106675000D01*
X90510000Y-106678072D01*
X90634482Y-106665812D01*
X90754180Y-106629502D01*
X90864494Y-106570537D01*
X90961185Y-106491185D01*
X91040537Y-106394494D01*
X91099502Y-106284180D01*
X91135812Y-106164482D01*
X91148072Y-106040000D01*
X91146074Y-104990000D01*
X92491928Y-104990000D01*
X92504188Y-105114482D01*
X92540498Y-105234180D01*
X92599463Y-105344494D01*
X92678815Y-105441185D01*
X92775506Y-105520537D01*
X92885820Y-105579502D01*
X93005518Y-105615812D01*
X93130000Y-105628072D01*
X93694250Y-105625000D01*
X93853000Y-105466250D01*
X93853000Y-104267000D01*
X94107000Y-104267000D01*
X94107000Y-105466250D01*
X94265750Y-105625000D01*
X94830000Y-105628072D01*
X94954482Y-105615812D01*
X95074180Y-105579502D01*
X95184494Y-105520537D01*
X95281185Y-105441185D01*
X95360537Y-105344494D01*
X95419502Y-105234180D01*
X95455812Y-105114482D01*
X95468072Y-104990000D01*
X95465000Y-104425750D01*
X95306250Y-104267000D01*
X94107000Y-104267000D01*
X93853000Y-104267000D01*
X92653750Y-104267000D01*
X92495000Y-104425750D01*
X92491928Y-104990000D01*
X91146074Y-104990000D01*
X91145000Y-104425750D01*
X90986250Y-104267000D01*
X89637000Y-104267000D01*
X89383000Y-104267000D01*
X88033750Y-104267000D01*
X87875000Y-104425750D01*
X87871928Y-106040000D01*
X87122000Y-106040000D01*
X87122000Y-102240000D01*
X87871928Y-102240000D01*
X87875000Y-103854250D01*
X88033750Y-104013000D01*
X89383000Y-104013000D01*
X89383000Y-101763750D01*
X89637000Y-101763750D01*
X89637000Y-104013000D01*
X90986250Y-104013000D01*
X91145000Y-103854250D01*
X91146073Y-103290000D01*
X92491928Y-103290000D01*
X92495000Y-103854250D01*
X92653750Y-104013000D01*
X93853000Y-104013000D01*
X93853000Y-102813750D01*
X94107000Y-102813750D01*
X94107000Y-104013000D01*
X95306250Y-104013000D01*
X95465000Y-103854250D01*
X95468072Y-103290000D01*
X95455812Y-103165518D01*
X95419502Y-103045820D01*
X95360537Y-102935506D01*
X95281185Y-102838815D01*
X95184494Y-102759463D01*
X95074180Y-102700498D01*
X94954482Y-102664188D01*
X94830000Y-102651928D01*
X94265750Y-102655000D01*
X94107000Y-102813750D01*
X93853000Y-102813750D01*
X93694250Y-102655000D01*
X93130000Y-102651928D01*
X93005518Y-102664188D01*
X92885820Y-102700498D01*
X92775506Y-102759463D01*
X92678815Y-102838815D01*
X92599463Y-102935506D01*
X92540498Y-103045820D01*
X92504188Y-103165518D01*
X92491928Y-103290000D01*
X91146073Y-103290000D01*
X91148072Y-102240000D01*
X91135812Y-102115518D01*
X91099502Y-101995820D01*
X91040537Y-101885506D01*
X90961185Y-101788815D01*
X90864494Y-101709463D01*
X90754180Y-101650498D01*
X90634482Y-101614188D01*
X90510000Y-101601928D01*
X89795750Y-101605000D01*
X89637000Y-101763750D01*
X89383000Y-101763750D01*
X89224250Y-101605000D01*
X88510000Y-101601928D01*
X88385518Y-101614188D01*
X88265820Y-101650498D01*
X88155506Y-101709463D01*
X88058815Y-101788815D01*
X87979463Y-101885506D01*
X87920498Y-101995820D01*
X87884188Y-102115518D01*
X87871928Y-102240000D01*
X87122000Y-102240000D01*
X87122000Y-99822000D01*
X95700000Y-99822000D01*
X95700001Y-108458000D01*
%TD*%
M02*
