%TF.GenerationSoftware,KiCad,Pcbnew,(5.1.6)-1*%
%TF.CreationDate,2020-06-24T21:39:33+02:00*%
%TF.ProjectId,SMT-2-THT,534d542d-322d-4544-9854-2e6b69636164,1.0*%
%TF.SameCoordinates,Original*%
%TF.FileFunction,Legend,Top*%
%TF.FilePolarity,Positive*%
%FSLAX46Y46*%
G04 Gerber Fmt 4.6, Leading zero omitted, Abs format (unit mm)*
G04 Created by KiCad (PCBNEW (5.1.6)-1) date 2020-06-24 21:39:33*
%MOMM*%
%LPD*%
G01*
G04 APERTURE LIST*
%ADD10C,0.150000*%
%ADD11C,0.120000*%
G04 APERTURE END LIST*
D10*
X91457357Y-106408571D02*
X91485928Y-106380000D01*
X91543071Y-106351428D01*
X91685928Y-106351428D01*
X91743071Y-106380000D01*
X91771642Y-106408571D01*
X91800214Y-106465714D01*
X91800214Y-106522857D01*
X91771642Y-106608571D01*
X91428785Y-106951428D01*
X91800214Y-106951428D01*
X92171642Y-106351428D02*
X92228785Y-106351428D01*
X92285928Y-106380000D01*
X92314500Y-106408571D01*
X92343071Y-106465714D01*
X92371642Y-106580000D01*
X92371642Y-106722857D01*
X92343071Y-106837142D01*
X92314500Y-106894285D01*
X92285928Y-106922857D01*
X92228785Y-106951428D01*
X92171642Y-106951428D01*
X92114500Y-106922857D01*
X92085928Y-106894285D01*
X92057357Y-106837142D01*
X92028785Y-106722857D01*
X92028785Y-106580000D01*
X92057357Y-106465714D01*
X92085928Y-106408571D01*
X92114500Y-106380000D01*
X92171642Y-106351428D01*
X92600214Y-106408571D02*
X92628785Y-106380000D01*
X92685928Y-106351428D01*
X92828785Y-106351428D01*
X92885928Y-106380000D01*
X92914500Y-106408571D01*
X92943071Y-106465714D01*
X92943071Y-106522857D01*
X92914500Y-106608571D01*
X92571642Y-106951428D01*
X92943071Y-106951428D01*
X93314500Y-106351428D02*
X93371642Y-106351428D01*
X93428785Y-106380000D01*
X93457357Y-106408571D01*
X93485928Y-106465714D01*
X93514500Y-106580000D01*
X93514500Y-106722857D01*
X93485928Y-106837142D01*
X93457357Y-106894285D01*
X93428785Y-106922857D01*
X93371642Y-106951428D01*
X93314500Y-106951428D01*
X93257357Y-106922857D01*
X93228785Y-106894285D01*
X93200214Y-106837142D01*
X93171642Y-106722857D01*
X93171642Y-106580000D01*
X93200214Y-106465714D01*
X93228785Y-106408571D01*
X93257357Y-106380000D01*
X93314500Y-106351428D01*
X93885928Y-106351428D02*
X93943071Y-106351428D01*
X94000214Y-106380000D01*
X94028785Y-106408571D01*
X94057357Y-106465714D01*
X94085928Y-106580000D01*
X94085928Y-106722857D01*
X94057357Y-106837142D01*
X94028785Y-106894285D01*
X94000214Y-106922857D01*
X93943071Y-106951428D01*
X93885928Y-106951428D01*
X93828785Y-106922857D01*
X93800214Y-106894285D01*
X93771642Y-106837142D01*
X93743071Y-106722857D01*
X93743071Y-106580000D01*
X93771642Y-106465714D01*
X93800214Y-106408571D01*
X93828785Y-106380000D01*
X93885928Y-106351428D01*
X94600214Y-106351428D02*
X94485928Y-106351428D01*
X94428785Y-106380000D01*
X94400214Y-106408571D01*
X94343071Y-106494285D01*
X94314500Y-106608571D01*
X94314500Y-106837142D01*
X94343071Y-106894285D01*
X94371642Y-106922857D01*
X94428785Y-106951428D01*
X94543071Y-106951428D01*
X94600214Y-106922857D01*
X94628785Y-106894285D01*
X94657357Y-106837142D01*
X94657357Y-106694285D01*
X94628785Y-106637142D01*
X94600214Y-106608571D01*
X94543071Y-106580000D01*
X94428785Y-106580000D01*
X94371642Y-106608571D01*
X94343071Y-106637142D01*
X94314500Y-106694285D01*
X94885928Y-106408571D02*
X94914500Y-106380000D01*
X94971642Y-106351428D01*
X95114500Y-106351428D01*
X95171642Y-106380000D01*
X95200214Y-106408571D01*
X95228785Y-106465714D01*
X95228785Y-106522857D01*
X95200214Y-106608571D01*
X94857357Y-106951428D01*
X95228785Y-106951428D01*
X95743071Y-106551428D02*
X95743071Y-106951428D01*
X95600214Y-106322857D02*
X95457357Y-106751428D01*
X95828785Y-106751428D01*
X93514500Y-101428571D02*
X93704976Y-101961904D01*
X93895452Y-101428571D01*
X94619261Y-101961904D02*
X94162119Y-101961904D01*
X94390690Y-101961904D02*
X94390690Y-101161904D01*
X94314500Y-101276190D01*
X94238309Y-101352380D01*
X94162119Y-101390476D01*
X94962119Y-101885714D02*
X95000214Y-101923809D01*
X94962119Y-101961904D01*
X94924023Y-101923809D01*
X94962119Y-101885714D01*
X94962119Y-101961904D01*
X95495452Y-101161904D02*
X95571642Y-101161904D01*
X95647833Y-101200000D01*
X95685928Y-101238095D01*
X95724023Y-101314285D01*
X95762119Y-101466666D01*
X95762119Y-101657142D01*
X95724023Y-101809523D01*
X95685928Y-101885714D01*
X95647833Y-101923809D01*
X95571642Y-101961904D01*
X95495452Y-101961904D01*
X95419261Y-101923809D01*
X95381166Y-101885714D01*
X95343071Y-101809523D01*
X95304976Y-101657142D01*
X95304976Y-101466666D01*
X95343071Y-101314285D01*
X95381166Y-101238095D01*
X95419261Y-101200000D01*
X95495452Y-101161904D01*
X90454166Y-99637904D02*
X90720833Y-100437904D01*
X90987500Y-99637904D01*
X91597023Y-100437904D02*
X91597023Y-100018857D01*
X91558928Y-99942666D01*
X91482738Y-99904571D01*
X91330357Y-99904571D01*
X91254166Y-99942666D01*
X91597023Y-100399809D02*
X91520833Y-100437904D01*
X91330357Y-100437904D01*
X91254166Y-100399809D01*
X91216071Y-100323619D01*
X91216071Y-100247428D01*
X91254166Y-100171238D01*
X91330357Y-100133142D01*
X91520833Y-100133142D01*
X91597023Y-100095047D01*
X92092261Y-100437904D02*
X92016071Y-100399809D01*
X91977976Y-100323619D01*
X91977976Y-99637904D01*
X92282738Y-99637904D02*
X92739880Y-99637904D01*
X92511309Y-100437904D02*
X92511309Y-99637904D01*
X93006547Y-100437904D02*
X93006547Y-99904571D01*
X93006547Y-100056952D02*
X93044642Y-99980761D01*
X93082738Y-99942666D01*
X93158928Y-99904571D01*
X93235119Y-99904571D01*
X93616071Y-100437904D02*
X93539880Y-100399809D01*
X93501785Y-100361714D01*
X93463690Y-100285523D01*
X93463690Y-100056952D01*
X93501785Y-99980761D01*
X93539880Y-99942666D01*
X93616071Y-99904571D01*
X93730357Y-99904571D01*
X93806547Y-99942666D01*
X93844642Y-99980761D01*
X93882738Y-100056952D01*
X93882738Y-100285523D01*
X93844642Y-100361714D01*
X93806547Y-100399809D01*
X93730357Y-100437904D01*
X93616071Y-100437904D01*
X94225595Y-99904571D02*
X94225595Y-100437904D01*
X94225595Y-99980761D02*
X94263690Y-99942666D01*
X94339880Y-99904571D01*
X94454166Y-99904571D01*
X94530357Y-99942666D01*
X94568452Y-100018857D01*
X94568452Y-100437904D01*
X94949404Y-100437904D02*
X94949404Y-99904571D01*
X94949404Y-99637904D02*
X94911309Y-99676000D01*
X94949404Y-99714095D01*
X94987500Y-99676000D01*
X94949404Y-99637904D01*
X94949404Y-99714095D01*
X95254166Y-100437904D02*
X95673214Y-99904571D01*
X95254166Y-99904571D02*
X95673214Y-100437904D01*
D11*
%TO.C,U1*%
X82260000Y-100730000D02*
X88270000Y-100730000D01*
X84510000Y-107550000D02*
X88270000Y-107550000D01*
X88270000Y-100730000D02*
X88270000Y-101990000D01*
X88270000Y-107550000D02*
X88270000Y-106290000D01*
%TO.C,J1*%
X77410000Y-100270000D02*
X78740000Y-100270000D01*
X77410000Y-101600000D02*
X77410000Y-100270000D01*
X77410000Y-102870000D02*
X80070000Y-102870000D01*
X80070000Y-102870000D02*
X80070000Y-108010000D01*
X77410000Y-102870000D02*
X77410000Y-108010000D01*
X77410000Y-108010000D02*
X80070000Y-108010000D01*
%TO.C,J2*%
X92650000Y-102810000D02*
X93980000Y-102810000D01*
X92650000Y-104140000D02*
X92650000Y-102810000D01*
X92650000Y-105410000D02*
X95310000Y-105410000D01*
X95310000Y-105410000D02*
X95310000Y-105470000D01*
X92650000Y-105410000D02*
X92650000Y-105470000D01*
X92650000Y-105470000D02*
X95310000Y-105470000D01*
%TO.C,U1*%
D10*
X83769523Y-108781809D02*
X83883809Y-108819904D01*
X84074285Y-108819904D01*
X84150476Y-108781809D01*
X84188571Y-108743714D01*
X84226666Y-108667523D01*
X84226666Y-108591333D01*
X84188571Y-108515142D01*
X84150476Y-108477047D01*
X84074285Y-108438952D01*
X83921904Y-108400857D01*
X83845714Y-108362761D01*
X83807619Y-108324666D01*
X83769523Y-108248476D01*
X83769523Y-108172285D01*
X83807619Y-108096095D01*
X83845714Y-108058000D01*
X83921904Y-108019904D01*
X84112380Y-108019904D01*
X84226666Y-108058000D01*
X84721904Y-108019904D02*
X84874285Y-108019904D01*
X84950476Y-108058000D01*
X85026666Y-108134190D01*
X85064761Y-108286571D01*
X85064761Y-108553238D01*
X85026666Y-108705619D01*
X84950476Y-108781809D01*
X84874285Y-108819904D01*
X84721904Y-108819904D01*
X84645714Y-108781809D01*
X84569523Y-108705619D01*
X84531428Y-108553238D01*
X84531428Y-108286571D01*
X84569523Y-108134190D01*
X84645714Y-108058000D01*
X84721904Y-108019904D01*
X85293333Y-108019904D02*
X85750476Y-108019904D01*
X85521904Y-108819904D02*
X85521904Y-108019904D01*
X86017142Y-108515142D02*
X86626666Y-108515142D01*
X86969523Y-108096095D02*
X87007619Y-108058000D01*
X87083809Y-108019904D01*
X87274285Y-108019904D01*
X87350476Y-108058000D01*
X87388571Y-108096095D01*
X87426666Y-108172285D01*
X87426666Y-108248476D01*
X87388571Y-108362761D01*
X86931428Y-108819904D01*
X87426666Y-108819904D01*
X87731428Y-108096095D02*
X87769523Y-108058000D01*
X87845714Y-108019904D01*
X88036190Y-108019904D01*
X88112380Y-108058000D01*
X88150476Y-108096095D01*
X88188571Y-108172285D01*
X88188571Y-108248476D01*
X88150476Y-108362761D01*
X87693333Y-108819904D01*
X88188571Y-108819904D01*
X88455238Y-108019904D02*
X88950476Y-108019904D01*
X88683809Y-108324666D01*
X88798095Y-108324666D01*
X88874285Y-108362761D01*
X88912380Y-108400857D01*
X88950476Y-108477047D01*
X88950476Y-108667523D01*
X88912380Y-108743714D01*
X88874285Y-108781809D01*
X88798095Y-108819904D01*
X88569523Y-108819904D01*
X88493333Y-108781809D01*
X88455238Y-108743714D01*
%TD*%
M02*
