%TF.GenerationSoftware,KiCad,Pcbnew,(5.1.6)-1*%
%TF.CreationDate,2020-06-24T21:39:32+02:00*%
%TF.ProjectId,SMT-2-THT,534d542d-322d-4544-9854-2e6b69636164,1.0*%
%TF.SameCoordinates,Original*%
%TF.FileFunction,Copper,L2,Bot*%
%TF.FilePolarity,Positive*%
%FSLAX46Y46*%
G04 Gerber Fmt 4.6, Leading zero omitted, Abs format (unit mm)*
G04 Created by KiCad (PCBNEW (5.1.6)-1) date 2020-06-24 21:39:32*
%MOMM*%
%LPD*%
G01*
G04 APERTURE LIST*
%TA.AperFunction,SMDPad,CuDef*%
%ADD10R,0.400000X0.600000*%
%TD*%
%TA.AperFunction,SMDPad,CuDef*%
%ADD11R,1.200000X0.900000*%
%TD*%
%TA.AperFunction,SMDPad,CuDef*%
%ADD12C,0.100000*%
%TD*%
%TA.AperFunction,ComponentPad*%
%ADD13R,1.700000X1.700000*%
%TD*%
%TA.AperFunction,ComponentPad*%
%ADD14O,1.700000X1.700000*%
%TD*%
%TA.AperFunction,ViaPad*%
%ADD15C,0.800000*%
%TD*%
%TA.AperFunction,Conductor*%
%ADD16C,0.500000*%
%TD*%
%TA.AperFunction,Conductor*%
%ADD17C,1.500000*%
%TD*%
%TA.AperFunction,Conductor*%
%ADD18C,0.254000*%
%TD*%
G04 APERTURE END LIST*
D10*
%TO.P,R3,1*%
%TO.N,/Pin4*%
X86810000Y-107950000D03*
%TO.P,R3,2*%
%TO.N,/Pin3*%
X85910000Y-107950000D03*
%TD*%
D11*
%TO.P,R2,1*%
%TO.N,/Pin4*%
X87460000Y-100330000D03*
%TO.P,R2,2*%
%TO.N,/Pin1*%
X85260000Y-100330000D03*
%TD*%
%TA.AperFunction,SMDPad,CuDef*%
D12*
%TO.P,R1,1*%
%TO.N,/Pin4*%
G36*
X90523060Y-102190550D02*
G01*
X90523060Y-106089450D01*
X87022940Y-104989630D01*
X87022940Y-103290370D01*
X90523060Y-102190550D01*
G37*
%TD.AperFunction*%
%TA.AperFunction,SMDPad,CuDef*%
%TO.P,R1,2*%
%TO.N,/Pin2*%
G36*
X82196940Y-106089450D02*
G01*
X82196940Y-102190550D01*
X85697060Y-103290370D01*
X85697060Y-104989630D01*
X82196940Y-106089450D01*
G37*
%TD.AperFunction*%
%TD*%
D13*
%TO.P,J1,1*%
%TO.N,/Pin1*%
X78740000Y-101600000D03*
D14*
%TO.P,J1,2*%
%TO.N,/Pin2*%
X78740000Y-104140000D03*
%TO.P,J1,3*%
%TO.N,/Pin3*%
X78740000Y-106680000D03*
%TD*%
D13*
%TO.P,J2,1*%
%TO.N,/Pin4*%
X93980000Y-104140000D03*
%TD*%
D15*
%TO.N,/Pin4*%
X88900000Y-100965000D03*
X90170000Y-100965000D03*
X90170000Y-107315000D03*
X88900000Y-107315000D03*
%TD*%
D16*
%TO.N,/Pin1*%
X80010000Y-100330000D02*
X78740000Y-101600000D01*
X85260000Y-100330000D02*
X80010000Y-100330000D01*
D17*
%TO.N,/Pin2*%
X78740000Y-104140000D02*
X83947000Y-104140000D01*
D16*
%TO.N,/Pin3*%
X80010000Y-107950000D02*
X78740000Y-106680000D01*
X85910000Y-107950000D02*
X80010000Y-107950000D01*
D17*
%TO.N,/Pin4*%
X93980000Y-104140000D02*
X88773000Y-104140000D01*
D16*
X88265000Y-107950000D02*
X88900000Y-107315000D01*
X86810000Y-107950000D02*
X88265000Y-107950000D01*
X88265000Y-100330000D02*
X88900000Y-100965000D01*
X87460000Y-100330000D02*
X88265000Y-100330000D01*
%TD*%
D18*
%TO.N,/Pin4*%
G36*
X95700001Y-108458000D02*
G01*
X87611353Y-108458000D01*
X87638804Y-108358357D01*
X87645000Y-108235750D01*
X87486250Y-108077000D01*
X87122000Y-108077000D01*
X87122000Y-107823000D01*
X87486250Y-107823000D01*
X87645000Y-107664250D01*
X87638804Y-107541643D01*
X87605582Y-107421051D01*
X87549473Y-107309258D01*
X87472631Y-107210559D01*
X87378012Y-107128748D01*
X87269249Y-107066968D01*
X87150524Y-107027594D01*
X87122000Y-107024291D01*
X87122000Y-105689588D01*
X88646000Y-106168465D01*
X88646000Y-104267000D01*
X88900000Y-104267000D01*
X88900000Y-106248278D01*
X90331784Y-106698178D01*
X90398578Y-106715262D01*
X90523060Y-106727522D01*
X90647542Y-106715262D01*
X90767240Y-106678952D01*
X90877554Y-106619987D01*
X90974245Y-106540635D01*
X91053597Y-106443944D01*
X91112562Y-106333630D01*
X91148872Y-106213932D01*
X91161132Y-106089450D01*
X91161132Y-104990000D01*
X92491928Y-104990000D01*
X92504188Y-105114482D01*
X92540498Y-105234180D01*
X92599463Y-105344494D01*
X92678815Y-105441185D01*
X92775506Y-105520537D01*
X92885820Y-105579502D01*
X93005518Y-105615812D01*
X93130000Y-105628072D01*
X93694250Y-105625000D01*
X93853000Y-105466250D01*
X93853000Y-104267000D01*
X94107000Y-104267000D01*
X94107000Y-105466250D01*
X94265750Y-105625000D01*
X94830000Y-105628072D01*
X94954482Y-105615812D01*
X95074180Y-105579502D01*
X95184494Y-105520537D01*
X95281185Y-105441185D01*
X95360537Y-105344494D01*
X95419502Y-105234180D01*
X95455812Y-105114482D01*
X95468072Y-104990000D01*
X95465000Y-104425750D01*
X95306250Y-104267000D01*
X94107000Y-104267000D01*
X93853000Y-104267000D01*
X92653750Y-104267000D01*
X92495000Y-104425750D01*
X92491928Y-104990000D01*
X91161132Y-104990000D01*
X91161132Y-104267000D01*
X88900000Y-104267000D01*
X88646000Y-104267000D01*
X88626000Y-104267000D01*
X88626000Y-104013000D01*
X88646000Y-104013000D01*
X88646000Y-102111535D01*
X87122000Y-102590412D01*
X87122000Y-102031722D01*
X88900000Y-102031722D01*
X88900000Y-104013000D01*
X91161132Y-104013000D01*
X91161132Y-103290000D01*
X92491928Y-103290000D01*
X92495000Y-103854250D01*
X92653750Y-104013000D01*
X93853000Y-104013000D01*
X93853000Y-102813750D01*
X94107000Y-102813750D01*
X94107000Y-104013000D01*
X95306250Y-104013000D01*
X95465000Y-103854250D01*
X95468072Y-103290000D01*
X95455812Y-103165518D01*
X95419502Y-103045820D01*
X95360537Y-102935506D01*
X95281185Y-102838815D01*
X95184494Y-102759463D01*
X95074180Y-102700498D01*
X94954482Y-102664188D01*
X94830000Y-102651928D01*
X94265750Y-102655000D01*
X94107000Y-102813750D01*
X93853000Y-102813750D01*
X93694250Y-102655000D01*
X93130000Y-102651928D01*
X93005518Y-102664188D01*
X92885820Y-102700498D01*
X92775506Y-102759463D01*
X92678815Y-102838815D01*
X92599463Y-102935506D01*
X92540498Y-103045820D01*
X92504188Y-103165518D01*
X92491928Y-103290000D01*
X91161132Y-103290000D01*
X91161132Y-102190550D01*
X91157407Y-102121706D01*
X91131788Y-101999274D01*
X91082775Y-101884192D01*
X91012253Y-101780884D01*
X90922931Y-101693319D01*
X90818242Y-101624862D01*
X90702210Y-101578144D01*
X90579293Y-101554961D01*
X90454216Y-101556203D01*
X90331784Y-101581822D01*
X88900000Y-102031722D01*
X87122000Y-102031722D01*
X87122000Y-101415511D01*
X87174250Y-101415000D01*
X87333000Y-101256250D01*
X87333000Y-100457000D01*
X87587000Y-100457000D01*
X87587000Y-101256250D01*
X87745750Y-101415000D01*
X88060000Y-101418072D01*
X88184482Y-101405812D01*
X88304180Y-101369502D01*
X88414494Y-101310537D01*
X88511185Y-101231185D01*
X88590537Y-101134494D01*
X88649502Y-101024180D01*
X88685812Y-100904482D01*
X88698072Y-100780000D01*
X88695000Y-100615750D01*
X88536250Y-100457000D01*
X87587000Y-100457000D01*
X87333000Y-100457000D01*
X87313000Y-100457000D01*
X87313000Y-100203000D01*
X87333000Y-100203000D01*
X87333000Y-100183000D01*
X87587000Y-100183000D01*
X87587000Y-100203000D01*
X88536250Y-100203000D01*
X88695000Y-100044250D01*
X88698072Y-99880000D01*
X88692360Y-99822000D01*
X95700000Y-99822000D01*
X95700001Y-108458000D01*
G37*
X95700001Y-108458000D02*
X87611353Y-108458000D01*
X87638804Y-108358357D01*
X87645000Y-108235750D01*
X87486250Y-108077000D01*
X87122000Y-108077000D01*
X87122000Y-107823000D01*
X87486250Y-107823000D01*
X87645000Y-107664250D01*
X87638804Y-107541643D01*
X87605582Y-107421051D01*
X87549473Y-107309258D01*
X87472631Y-107210559D01*
X87378012Y-107128748D01*
X87269249Y-107066968D01*
X87150524Y-107027594D01*
X87122000Y-107024291D01*
X87122000Y-105689588D01*
X88646000Y-106168465D01*
X88646000Y-104267000D01*
X88900000Y-104267000D01*
X88900000Y-106248278D01*
X90331784Y-106698178D01*
X90398578Y-106715262D01*
X90523060Y-106727522D01*
X90647542Y-106715262D01*
X90767240Y-106678952D01*
X90877554Y-106619987D01*
X90974245Y-106540635D01*
X91053597Y-106443944D01*
X91112562Y-106333630D01*
X91148872Y-106213932D01*
X91161132Y-106089450D01*
X91161132Y-104990000D01*
X92491928Y-104990000D01*
X92504188Y-105114482D01*
X92540498Y-105234180D01*
X92599463Y-105344494D01*
X92678815Y-105441185D01*
X92775506Y-105520537D01*
X92885820Y-105579502D01*
X93005518Y-105615812D01*
X93130000Y-105628072D01*
X93694250Y-105625000D01*
X93853000Y-105466250D01*
X93853000Y-104267000D01*
X94107000Y-104267000D01*
X94107000Y-105466250D01*
X94265750Y-105625000D01*
X94830000Y-105628072D01*
X94954482Y-105615812D01*
X95074180Y-105579502D01*
X95184494Y-105520537D01*
X95281185Y-105441185D01*
X95360537Y-105344494D01*
X95419502Y-105234180D01*
X95455812Y-105114482D01*
X95468072Y-104990000D01*
X95465000Y-104425750D01*
X95306250Y-104267000D01*
X94107000Y-104267000D01*
X93853000Y-104267000D01*
X92653750Y-104267000D01*
X92495000Y-104425750D01*
X92491928Y-104990000D01*
X91161132Y-104990000D01*
X91161132Y-104267000D01*
X88900000Y-104267000D01*
X88646000Y-104267000D01*
X88626000Y-104267000D01*
X88626000Y-104013000D01*
X88646000Y-104013000D01*
X88646000Y-102111535D01*
X87122000Y-102590412D01*
X87122000Y-102031722D01*
X88900000Y-102031722D01*
X88900000Y-104013000D01*
X91161132Y-104013000D01*
X91161132Y-103290000D01*
X92491928Y-103290000D01*
X92495000Y-103854250D01*
X92653750Y-104013000D01*
X93853000Y-104013000D01*
X93853000Y-102813750D01*
X94107000Y-102813750D01*
X94107000Y-104013000D01*
X95306250Y-104013000D01*
X95465000Y-103854250D01*
X95468072Y-103290000D01*
X95455812Y-103165518D01*
X95419502Y-103045820D01*
X95360537Y-102935506D01*
X95281185Y-102838815D01*
X95184494Y-102759463D01*
X95074180Y-102700498D01*
X94954482Y-102664188D01*
X94830000Y-102651928D01*
X94265750Y-102655000D01*
X94107000Y-102813750D01*
X93853000Y-102813750D01*
X93694250Y-102655000D01*
X93130000Y-102651928D01*
X93005518Y-102664188D01*
X92885820Y-102700498D01*
X92775506Y-102759463D01*
X92678815Y-102838815D01*
X92599463Y-102935506D01*
X92540498Y-103045820D01*
X92504188Y-103165518D01*
X92491928Y-103290000D01*
X91161132Y-103290000D01*
X91161132Y-102190550D01*
X91157407Y-102121706D01*
X91131788Y-101999274D01*
X91082775Y-101884192D01*
X91012253Y-101780884D01*
X90922931Y-101693319D01*
X90818242Y-101624862D01*
X90702210Y-101578144D01*
X90579293Y-101554961D01*
X90454216Y-101556203D01*
X90331784Y-101581822D01*
X88900000Y-102031722D01*
X87122000Y-102031722D01*
X87122000Y-101415511D01*
X87174250Y-101415000D01*
X87333000Y-101256250D01*
X87333000Y-100457000D01*
X87587000Y-100457000D01*
X87587000Y-101256250D01*
X87745750Y-101415000D01*
X88060000Y-101418072D01*
X88184482Y-101405812D01*
X88304180Y-101369502D01*
X88414494Y-101310537D01*
X88511185Y-101231185D01*
X88590537Y-101134494D01*
X88649502Y-101024180D01*
X88685812Y-100904482D01*
X88698072Y-100780000D01*
X88695000Y-100615750D01*
X88536250Y-100457000D01*
X87587000Y-100457000D01*
X87333000Y-100457000D01*
X87313000Y-100457000D01*
X87313000Y-100203000D01*
X87333000Y-100203000D01*
X87333000Y-100183000D01*
X87587000Y-100183000D01*
X87587000Y-100203000D01*
X88536250Y-100203000D01*
X88695000Y-100044250D01*
X88698072Y-99880000D01*
X88692360Y-99822000D01*
X95700000Y-99822000D01*
X95700001Y-108458000D01*
%TD*%
M02*
